:FULLY-SPECIFIED
:DEGREES
1099
root 3.22885 16.3876 -1.89574 -88.8056 -86.1676 104.616
lowerback -6.49614 -0.223533 -1.60081
upperback -5.14093 -0.39678 -1.26685
thorax -1.65872 -0.246672 -0.42305
lowerneck -15.2378 -0.845748 1.62713
upperneck 19.8457 -1.64104 -0.468674
head 8.69555 -0.765763 -0.63383
rclavicle 2.5842e-015 -1.49089e-015
rhumerus -37.619 -3.70722 -82.691
rradius 35.937
rwrist 14.6796
rhand -25.3297 -5.98672
rfingers 7.12502
rthumb 1.19316 -35.9631
lclavicle 2.5842e-015 -1.49089e-015
lhumerus -40.3459 -7.78305 86.9378
lradius 36.4411
lwrist -7.69132
lhand -37.1839 -2.31315
lfingers 7.12502
lthumb -10.252 27.417
rfemur -36.2682 -3.72505 17.5866
rtibia 72.2876
rfoot -7.33751 -6.93517
rtoes -15.8627
lfemur -29.4297 -12.2068 -28.3651
ltibia 23.2673
lfoot -8.38779 16.1238
ltoes -4.49044
1100
root 3.2314 16.3835 -1.88529 -87.7772 -86.2187 103.566
lowerback -6.49569 -0.328485 -1.58149
upperback -5.1217 -0.535059 -1.18682
thorax -1.63771 -0.314713 -0.358427
lowerneck -15.2455 -0.803848 1.60471
upperneck 20.0497 -1.56871 -0.545353
head 8.76679 -0.742744 -0.649533
rclavicle 1.33186e-014 4.54223e-014
rhumerus -37.9488 -4.10832 -82.4187
rradius 35.6049
rwrist 14.9462
rhand -25.5768 -5.93807
rfingers 7.12502
rthumb 0.954451 -35.9157
lclavicle 1.33186e-014 4.54223e-014
lhumerus -39.6361 -8.27823 86.9884
lradius 36.3596
lwrist -8.04324
lhand -37.1478 -2.43997
lfingers 7.12502
lthumb -10.2173 27.2919
rfemur -37.6601 -3.51776 17.6303
rtibia 72.6813
rfoot -8.12527 -7.19232
rtoes -15.3642
lfemur -28.9912 -12.2884 -28.4492
ltibia 23.5637
lfoot -8.99183 16.2703
ltoes -4.64506
1101
root 3.23587 16.3816 -1.87257 -87.3832 -86.2485 103.16
lowerback -6.50634 -0.37458 -1.49508
upperback -5.09659 -0.598333 -1.1682
thorax -1.60582 -0.348134 -0.391028
lowerneck -15.2337 -0.806254 1.55449
upperneck 20.2413 -1.57601 -0.509472
head 8.83082 -0.747506 -0.631719
rclavicle -1.78906e-015 5.36719e-015
rhumerus -38.3167 -4.71926 -82.0973
rradius 35.3955
rwrist 15.0133
rhand -25.4252 -5.87819
rfingers 7.12502
rthumb 1.10086 -35.8551
lclavicle -1.78906e-015 5.36719e-015
lhumerus -38.9274 -8.8411 87.0081
lradius 36.3695
lwrist -8.2778
lhand -37.0817 -2.45566
lfingers 7.12502
lthumb -10.1535 27.2793
rfemur -39.0173 -3.23113 17.5996
rtibia 72.7507
rfoot -8.77999 -7.21175
rtoes -14.2261
lfemur -28.5543 -12.3539 -28.5586
ltibia 23.7955
lfoot -9.55306 16.4482
ltoes -4.80533
1102
root 3.24044 16.3781 -1.86364 -86.7449 -86.2764 102.467
lowerback -6.4767 -0.443307 -1.47737
upperback -5.05484 -0.687803 -1.12267
thorax -1.57814 -0.391848 -0.35851
lowerneck -15.1822 -0.781389 1.52167
upperneck 20.3473 -1.5425 -0.490931
head 8.85854 -0.73356 -0.616698
rclavicle 5.56597e-015 2.68359e-015
rhumerus -38.6572 -5.2306 -81.7945
rradius 35.0969
rwrist 15.1716
rhand -25.5016 -5.76267
rfingers 7.12502
rthumb 1.02709 -35.7399
lclavicle 5.56597e-015 2.68359e-015
lhumerus -38.1534 -9.22295 86.943
lradius 36.2433
lwrist -8.7662
lhand -37.0083 -2.30472
lfingers 7.12502
lthumb -10.0827 27.4337
rfemur -40.1931 -2.8579 17.5957
rtibia 72.498
rfoot -9.45168 -7.35232
rtoes -14.4976
lfemur -28.0315 -12.5147 -28.6447
ltibia 24.0005
lfoot -10.1624 16.7109
ltoes -4.95954
1103
root 3.24406 16.3748 -1.85229 -86.7736 -86.2654 102.338
lowerback -6.33924 -0.500359 -1.50283
upperback -4.99425 -0.759781 -1.0564
thorax -1.58991 -0.424281 -0.278501
lowerneck -15.2033 -0.778656 1.43949
upperneck 20.5237 -1.52456 -0.496566
head 8.92366 -0.73318 -0.604643
rclavicle 3.18055e-015 2.88238e-015
rhumerus -39.016 -5.55801 -81.4627
rradius 34.8021
rwrist 15.3419
rhand -25.4163 -5.80436
rfingers 7.12502
rthumb 1.10946 -35.7812
lclavicle 3.18055e-015 2.88238e-015
lhumerus -37.3861 -9.58055 86.9923
lradius 36.1182
lwrist -8.6237
lhand -37.0836 -2.50381
lfingers 7.12502
lthumb -10.1553 27.2311
rfemur -41.1589 -2.42936 17.4952
rtibia 71.9401
rfoot -10.1526 -7.40298
rtoes -14.2039
lfemur -27.3991 -12.62 -28.8281
ltibia 24.2205
lfoot -10.6715 17.0198
ltoes -5.14389
1104
root 3.24733 16.3707 -1.84038 -87.3448 -86.2847 102.91
lowerback -6.35768 -0.540048 -1.43731
upperback -4.98373 -0.814116 -1.01467
thorax -1.56854 -0.452454 -0.275216
lowerneck -15.1694 -0.754066 1.42974
upperneck 20.6025 -1.48813 -0.512734
head 8.94482 -0.719623 -0.604717
rclavicle 1.19271e-015 2.5842e-015
rhumerus -39.3236 -5.88549 -81.1673
rradius 34.4264
rwrist 15.4975
rhand -25.2947 -5.56923
rfingers 7.12502
rthumb 1.22698 -35.5454
lclavicle 1.19271e-015 2.5842e-015
lhumerus -36.7217 -9.83161 86.9749
lradius 36.1266
lwrist -8.47248
lhand -37.0851 -2.42828
lfingers 7.12502
lthumb -10.1568 27.3066
rfemur -42.2079 -1.90901 17.4426
rtibia 71.0895
rfoot -10.7635 -7.52756
rtoes -14.276
lfemur -26.9336 -12.9659 -28.8777
ltibia 24.449
lfoot -11.2701 17.5515
ltoes -5.28709
